<?xml version="1.0" encoding="utf-8"?>
<!-- Generator: Adobe Illustrator 19.2.0, SVG Export Plug-In . SVG Version: 6.00 Build 0)  -->
<svg version="1.1" id="Layer_1" xmlns="http://www.w3.org/2000/svg" xmlns:xlink="http://www.w3.org/1999/xlink" x="0px" y="0px"
	 viewBox="0 0 1920 1080" style="enable-background:new 0 0 1920 1080;" xml:space="preserve">
<style type="text/css">
	.st0{fill:#F8C09D;}
	.st1{fill:#1B965B;}
	.st2{fill:#14844C;}
	.st3{fill:#F2F2F2;}
	.st4{fill:#1561A0;}
	.st5{fill:#22B573;}
	.st6{fill:#065082;}
	.st7{fill:#F6AE8D;}
	.st8{fill:#333333;}
	.st9{fill:#EF937E;}
</style>
<path class="st0" d="M763.7,740l-11.4,24.6c0,0,129.5,57,168-16c33.1-62.7,67.5-135,67.5-135l-37.6-16.3c0,0-35.9,62.3-72,127.5
	C858.6,760,763.7,740,763.7,740z"/>
<path class="st1" d="M942.7,590.4c33.3-26.3,80,7.8,65.1,47.5c-0.3,0.7-0.5,1.4-0.8,2.1c-26.9,70.6-51.1,103.7-51.1,103.7
	l-95.6-42.6c0,0,25.5-58.3,54.2-86.6C921.6,607.5,931.6,599.1,942.7,590.4z"/>
<polygon class="st2" points="874.1,673 971.2,718.7 964.2,730.8 867.5,686 "/>
<polygon class="st3" points="790.2,744.1 783.9,776 740.2,764.9 745.2,737 "/>
<polygon class="st4" points="780.8,742.6 774.5,773.4 765.5,771 771.7,741.2 "/>
<path class="st0" d="M1139.1,864.5l25.6-12.4c0,0-21.6-59-47.9-117.9c-36.7-82.3-151.5-113.6-151.5-113.6l-16.6,40
	c0,0,81.5,34,121.6,87.8C1109.5,800.9,1139.1,864.5,1139.1,864.5z"/>
<path class="st5" d="M984.9,592.1c-44.1-15.7-78.5,40.4-44.2,72.3c0.7,0.6,1.4,1.3,2.1,1.9c56.9,51.1,86.9,77.3,86.9,77.3l81-66.2
	c0,0-45.8-46.5-81-66.2C1018.8,605,1002.4,598.3,984.9,592.1z"/>
<polygon class="st1" points="1017.9,733.2 1098.6,665.5 1087.1,654.8 1006.1,722.7 "/>
<polygon class="st3" points="1121.4,829.9 1151,816.3 1167.7,858.1 1142.1,870.5 "/>
<polygon class="st4" points="1125.8,838.4 1154.5,825.4 1157.8,834.1 1129.9,846.5 "/>
<path class="st5" d="M962.8,671.9l-1.3-0.2c-41.1-6.7-68.8-45.9-62.1-87l0-0.2l150,24.6l0,0.2
	C1042.6,650.4,1003.8,678.7,962.8,671.9z"/>
<path class="st3" d="M1149,912.6l96.4-48.1l5.5,9.5c0,0-20.8,14.3-47.9,28.8c-29.1,15.5-48.9,20.8-48.9,20.8L1149,912.6z"/>
<path class="st4" d="M1139.1,864.5c0,0,5,2.1,13.8-2.2c8.8-4.3,11.8-10.1,11.8-10.1s19,6,31.1,0c12.1-6,29.5-15.3,39.6-4.3
	c10.1,11,9.9,16.6,9.9,16.6s-21.3,14.8-47.6,27.9c-25.1,12.5-48.8,20.2-48.8,20.2s-5.2-8.7-9.3-21.4
	C1135.7,878.5,1139.1,864.5,1139.1,864.5z"/>
<path class="st3" d="M1176.4,850.3c-1.9,0.8-2.4,3.2-1.1,4.7c1.6,1.8,2.1,2.3,2.8,5c0.4,1.5,0.6,2.7,0.7,3.6
	c0.2,1.8,1.9,2.9,3.6,2.5l0.5-0.1c1.6-0.4,2.6-2,2.2-3.6c-0.9-3.9-1.8-8.8-5.9-11.8C1178.4,850,1177.3,849.9,1176.4,850.3
	L1176.4,850.3z"/>
<path class="st3" d="M1188.8,849.4c-1.9,0.8-2.4,3.2-1.1,4.7c1.6,1.8,2.1,2.3,2.8,5c0.4,1.5,0.6,2.7,0.7,3.6
	c0.2,1.8,1.9,2.9,3.6,2.5l0.5-0.1c1.6-0.4,2.6-2,2.2-3.6c-0.9-3.9-1.8-8.8-5.9-11.8C1190.9,849.1,1189.8,849,1188.8,849.4
	L1188.8,849.4z"/>
<path class="st3" d="M1200.3,845.1c-1.9,0.8-2.4,3.2-1.1,4.7c1.6,1.8,2.1,2.3,2.8,5c0.4,1.5,0.6,2.7,0.7,3.6
	c0.2,1.8,1.9,2.9,3.6,2.5l0.5-0.1c1.6-0.4,2.6-2,2.2-3.6c-0.9-3.9-1.8-8.8-5.9-11.8C1202.4,844.8,1201.3,844.7,1200.3,845.1
	L1200.3,845.1z"/>
<path class="st3" d="M707,717.8l-17.5,106.3l-10.9-1.1c0,0,0.6-25.2,4.8-55.7c4.5-32.7,11.8-51.8,11.8-51.8L707,717.8z"/>
<path class="st4" d="M751.8,738.1c0,0-4.6,2.8-6.3,12.5c-1.7,9.7,1.3,15.5,1.3,15.5s-16,11.9-18.3,25.2
	c-2.3,13.4-4.9,32.9-19.8,34.6c-14.8,1.7-19.3-1.7-19.3-1.7s0.5-25.9,5.3-54.9c4.6-27.7,12.2-51.4,12.2-51.4s10.1,0.9,22.8,5
	C742.5,727.1,751.8,738.1,751.8,738.1z"/>
<path class="st3" d="M741.5,776.6c0.4-2-1.2-3.8-3.2-3.6c-2.4,0.3-3.1,0.4-5.7-0.6c-1.4-0.6-2.5-1.1-3.4-1.6
	c-1.5-0.9-3.5-0.2-4.2,1.5l-0.2,0.5c-0.6,1.5,0.1,3.3,1.6,3.9c3.7,1.5,8.2,3.7,13,2.1C740.5,778.4,741.3,777.6,741.5,776.6
	L741.5,776.6z"/>
<path class="st3" d="M734.9,787.2c0.4-2-1.2-3.8-3.2-3.6c-2.4,0.3-3.1,0.4-5.7-0.6c-1.4-0.6-2.5-1.1-3.4-1.6
	c-1.5-0.9-3.5-0.2-4.2,1.5l-0.2,0.5c-0.6,1.5,0.1,3.3,1.6,3.9c3.7,1.5,8.2,3.7,13,2.1C733.9,789.1,734.6,788.2,734.9,787.2
	L734.9,787.2z"/>
<path class="st3" d="M731.6,799.1c0.4-2-1.2-3.8-3.2-3.6c-2.4,0.3-3.1,0.4-5.7-0.6c-1.4-0.6-2.5-1.1-3.4-1.6
	c-1.5-0.9-3.5-0.2-4.2,1.5l-0.2,0.5c-0.6,1.5,0.1,3.3,1.6,3.9c3.7,1.5,8.2,3.7,13,2.1C730.6,800.9,731.4,800.1,731.6,799.1
	L731.6,799.1z"/>
<path class="st0" d="M1029.4,423.4L1029.4,423.4c-5.2,8.7-2.4,20.1,6.3,25.3c0,0,21.4,40.8,76,72.7c54.7,31.9,88.6,26.2,88.6,26.2
	c8.7,5.2,20.1,2.4,25.3-6.3h0c5.2-8.7,2.4-20.1-6.3-25.3c0,0-34.2,6.5-90.3-27.2s-74.4-71.7-74.4-71.7
	C1046,411.8,1034.7,414.7,1029.4,423.4z"/>
<path class="st6" d="M1076.5,523.2l44.5-49.4c0,0-52.7-49.1-66.7-60.7c-20.4-17-56.9,6.4-38.4,40.1
	C1027.1,473.6,1076.5,523.2,1076.5,523.2z"/>
<g>
	<path class="st0" d="M1213.2,543.4l-2.5,11.1l34.6,7.9c3.1,0.7,6.1-1.2,6.8-4.3l0,0c0.7-3.1-1.2-6.1-4.3-6.8L1213.2,543.4z"/>
	<path class="st0" d="M1215.9,532l-2.1,11.2l42.1,8.1c3.1,0.6,6.1-1.4,6.7-4.5v0c0.6-3.1-1.4-6.1-4.5-6.7L1215.9,532z"/>
	<path class="st0" d="M1221.9,522.6l-0.9,11.3l42.8,3.5c3.1,0.3,5.9-2.1,6.1-5.2l0,0c0.3-3.1-2.1-5.9-5.2-6.1L1221.9,522.6z"/>
	<path class="st0" d="M1217.2,514.3l1.2,11.3l42.7-4.4c3.1-0.3,5.4-3.1,5.1-6.2v0c-0.3-3.1-3.1-5.4-6.2-5.1L1217.2,514.3z"/>
	<path class="st0" d="M1209.5,511.8l6.1,9.6l21.8-13.9c2.6-1.7,3.4-5.2,1.7-7.8h0c-1.7-2.6-5.2-3.4-7.8-1.7L1209.5,511.8z"/>
	<path class="st0" d="M1216.4,509.8l9,0.7c1.7,0.1,2.9,1.6,2.7,3.2l-3.3,39.5c-0.1,1.7-1.6,2.9-3.2,2.7l-9-0.7
		c-6.2-0.5-10.9-6-10.4-12.2l1.9-22.9C1204.7,513.9,1210.2,509.3,1216.4,509.8z"/>
</g>
<path class="st4" d="M1015.1,393.1L1015.1,393.1c37.5,6.1,50.8,35.3,48.9,89.2c-1.1,29.4-7,30.6-14.5,126.8
	c-0.1,1.4-24.2,15.9-78.2,5.7c-54-10.2-71.8-30.3-71.8-30.3l1-11.7c7-62.4,28.9-127,51.2-161.5C962.6,394.4,995.7,390,1015.1,393.1z
	"/>
<path class="st6" d="M1056.2,424c-7.5-17.3-21.2-27.5-41.2-30.8v0c-8-1.3-17.9-1.3-27.8,0.2l-0.3,12.8
	c-0.5,20.1,15.7,37.2,35.7,37.7l0.4,0.1h0C1037.4,444,1050,436.1,1056.2,424z"/>
<path class="st0" d="M801.6,542.5L801.6,542.5c5.9,8.3,17.4,10.3,25.7,4.5c0,0,27.2-50.6,56.8-71.4c29.6-20.8,94.9-35.3,94.9-35.3
	c8.3-5.9,10.3-17.4,4.5-25.7v0c-5.9-8.3-17.4-10.3-25.7-4.5c0,0-64.2,13.6-94.3,34.8c-30.1,21.1-57.5,71.9-57.5,71.9
	C797.7,522.7,795.7,534.2,801.6,542.5z"/>
<g>
	<path class="st0" d="M798.9,534.7l-7.2-8.8l-27.6,22.4c-2.4,2-2.8,5.6-0.8,8l0,0c2,2.4,5.6,2.8,8,0.8L798.9,534.7z"/>
	<path class="st0" d="M806.2,543.9l-7.5-8.6l-32.4,28.2c-2.4,2.1-2.6,5.6-0.6,8h0c2.1,2.4,5.6,2.6,8,0.6L806.2,543.9z"/>
	<path class="st0" d="M809.9,554.4l-8.3-7.7l-29.2,31.5c-2.1,2.3-2,5.9,0.3,8l0,0c2.3,2.1,5.9,2,8-0.3L809.9,554.4z"/>
	<path class="st0" d="M819.3,555.8l-9.6-6.1L786.8,586c-1.7,2.7-0.9,6.2,1.8,7.8h0c2.7,1.7,6.2,0.9,7.8-1.8L819.3,555.8z"/>
	<path class="st0" d="M826,551.3l-11.3-1.1l-2.5,25.7c-0.3,3.1,2,5.9,5.1,6.2l0,0c3.1,0.3,5.9-2,6.2-5.1L826,551.3z"/>
	<path class="st0" d="M823.3,558l-6.2,6.6c-1.1,1.2-3,1.3-4.2,0.2l-29.1-27c-1.2-1.1-1.3-3-0.2-4.2l6.2-6.6c4.3-4.6,11.4-4.9,16-0.6
		l16.9,15.6C827.3,546.2,827.6,553.4,823.3,558z"/>
</g>
<path class="st6" d="M883.7,422.8l25.1,61.5c0,0,50.6-18.5,67.1-26.1c24.2-11,29.3-51.5-2.8-59.6C950.6,393,883.7,422.8,883.7,422.8
	z"/>
<path class="st0" d="M1048.1,408.4c-0.4,13.4-11.5,24.6-24.9,23.6h0l-0.2,0.2c-13.4-0.4-24.2-11.6-23.8-25l0.6-21.5l49,1.3
	L1048.1,408.4z"/>
<path class="st7" d="M999.2,401.7c9.4,4.3,19.3,6.8,28.7,7.1c6.6,0.2,13.4-0.7,20.2-2.6l0.4-15.5l-49-1.3L999.2,401.7z"/>
<path class="st0" d="M1025.4,397.7c-31.4-0.8-68.4-29.3-67.3-67.7l3.1-115.6l138.6,3.7l-3.1,115.6
	C1095.6,372.1,1073,399,1025.4,397.7z"/>
<rect x="943" y="265.7" transform="matrix(0.9996 2.704189e-02 -2.704189e-02 0.9996 8.0103 -25.8385)" class="st8" width="32.6" height="35.1"/>
<ellipse transform="matrix(2.704189e-02 -0.9996 0.9996 2.704189e-02 633.9556 1248.8882)" class="st0" cx="958.5" cy="298.8" rx="19.7" ry="19.7"/>
<path class="st9" d="M954.5,301.4c0.1-3.9,3.3-6.9,7.2-6.8c1.1,0,2.1,0.3,3,0.8c-1.2-2.1-3.4-3.5-5.9-3.6c-3.9-0.1-7.1,2.9-7.2,6.8
	c-0.1,2.8,1.5,5.2,3.8,6.4C954.8,303.9,954.5,302.7,954.5,301.4z"/>
<path class="st8" d="M972.7,211.1l0,0.3l-8.6-0.2c-10.5-0.3-19.3,7.8-19.6,18.3l0-0.2l-0.7,26.9l-0.6,22.1l32.6,0.9l0.3-10
	c0.2-6.7,5.5-11.8,12.2-11.7l97,2.6c12.7,0.3,23.3-9.8,23.7-22.5l1.2-46.2l-113.5-3.1C983.9,188.1,973,198.4,972.7,211.1z"/>
<path class="st8" d="M972.7,211.1c-1.9-15.9,0.3-25,11.1-33.9c7-5.7,19.4-7.4,24-7.3c3,0.1,6.1,0.6,8.8,2.1
	c5.7,3.1,8.8,10.7,7.1,17.2c3.6-4.3,7.9-8,12.6-10.9c6-3.8,13.1-6.4,19.9-4.7c6.8,1.7,12.5,9.1,10.6,16.2c3.8-1.9,7-4.7,10.7-6.8
	c5.9-3.3,12.9-4.3,19.4-2.8c2.4,0.6,4.8,1.5,6.9,2.9c4.3,2.9,7,7.8,8.3,13s6.7,33.1-6.2,52c-1.6,2.4-12.4,0.3-15.2-0.1L972.7,211.1z
	"/>
<rect x="944" y="244" class="st4" width="154" height="24"/>
<ellipse transform="matrix(0.3619 -0.9322 0.9322 0.3619 348.9725 1212.8176)" class="st9" cx="1060.5" cy="351.5" rx="10.3" ry="6.4"/>
<path class="st9" d="M1057.4,312l-0.4,14.3c0,0.6,0.8,1.2,1.4,1.2l8.4,0.2c2.3,0.1,3.6-2.6,2.2-4.4l-9.4-12
	C1059,310.5,1057.5,310.9,1057.4,312z"/>
<ellipse transform="matrix(2.704189e-02 -0.9996 0.9996 2.704189e-02 696.4894 1321.5857)" class="st8" cx="1027.2" cy="303" rx="8" ry="4.5"/>
<ellipse transform="matrix(2.704189e-02 -0.9996 0.9996 2.704189e-02 750.5042 1380.171)" class="st8" cx="1084.3" cy="304.5" rx="8" ry="4.5"/>
</svg>
